<svg width="26" height="26" viewBox="0 0 26 26" fill="none" xmlns="http://www.w3.org/2000/svg">
<g clip-path="url(#clip0_1_2)">
<path d="M13 26C20.1797 26 26 20.1797 26 13C26 5.8203 20.1797 0 13 0C5.8203 0 0 5.8203 0 13C0 20.1797 5.8203 26 13 26Z" fill="white"/>
<path d="M13 25.5C19.9036 25.5 25.5 19.9036 25.5 13C25.5 6.09644 19.9036 0.5 13 0.5C6.09644 0.5 0.5 6.09644 0.5 13C0.5 19.9036 6.09644 25.5 13 25.5Z" stroke="#003595"/>
<path d="M12.24 15.98L12.02 5.08H13.96L13.74 15.98H12.24ZM12.04 19.5V17.56H13.98V19.5H12.04Z" fill="#003595"/>
</g>
<defs>
<clipPath id="clip0_1_2">
<rect width="26" height="26" fill="white"/>
</clipPath>
</defs>
</svg>
